<svg width="1000" height="450" viewBox="0 0 1000 450" xmlns="http://www.w3.org/2000/svg" font-family="Arial">

<rect width="1000" height="450" fill="#f8fafc"/>

<text x="500" y="40" text-anchor="middle" font-size="24" font-weight="bold">
Retrieval Augmented Generation (RAG)
</text>

<!-- Documents -->
<rect x="80" y="180" width="140" height="60" rx="8" fill="#2563eb"/>
<text x="150" y="215" text-anchor="middle" fill="white">Documents</text>

<!-- Chunking -->
<rect x="260" y="180" width="140" height="60" rx="8" fill="#3b82f6"/>
<text x="330" y="210" text-anchor="middle" fill="white">Text</text>
<text x="330" y="225" text-anchor="middle" fill="white">Chunking</text>

<!-- Embeddings -->
<rect x="440" y="180" width="140" height="60" rx="8" fill="#6366f1"/>
<text x="510" y="210" text-anchor="middle" fill="white">Embedding</text>
<text x="510" y="225" text-anchor="middle" fill="white">Model</text>

<!-- Vector DB -->
<rect x="620" y="180" width="140" height="60" rx="8" fill="#10b981"/>
<text x="690" y="210" text-anchor="middle" fill="white">Vector</text>
<text x="690" y="225" text-anchor="middle" fill="white">Database</text>

<!-- LLM -->
<rect x="800" y="180" width="140" height="60" rx="8" fill="#f59e0b"/>
<text x="870" y="210" text-anchor="middle" fill="white">LLM</text>
<text x="870" y="225" text-anchor="middle" fill="white">Response</text>

<!-- Arrows -->
<line x1="220" y1="210" x2="260" y2="210" stroke="black"/>
<line x1="400" y1="210" x2="440" y2="210" stroke="black"/>
<line x1="580" y1="210" x2="620" y2="210" stroke="black"/>
<line x1="760" y1="210" x2="800" y2="210" stroke="black"/>

</svg>